<mxfile host="app.diagrams.net" agent="Mozilla/5.0 (Windows NT 10.0; Win64; x64) AppleWebKit/537.36 (KHTML, like Gecko) Chrome/131.0.0.0 Safari/537.36" version="25.0.3">
  <diagram name="PÃ¡gina-1" id="P9wPp9mZTbD2rhgCQj3D">
    <mxGraphModel dx="1600" dy="1778" grid="1" gridSize="10" guides="1" tooltips="1" connect="1" arrows="1" fold="1" page="1" pageScale="1" pageWidth="827" pageHeight="1169" math="0" shadow="0">
      <root>
        <mxCell id="0" />
        <mxCell id="1" parent="0" />
        <mxCell id="-b1DFWbRSprOOEIOd41p-46" value="" style="rhombus;whiteSpace=wrap;html=1;" vertex="1" parent="1">
          <mxGeometry x="230" y="-370" width="80" height="80" as="geometry" />
        </mxCell>
        <mxCell id="-b1DFWbRSprOOEIOd41p-45" value="" style="rhombus;whiteSpace=wrap;html=1;" vertex="1" parent="1">
          <mxGeometry x="190" y="-540" width="70" height="45" as="geometry" />
        </mxCell>
        <mxCell id="-b1DFWbRSprOOEIOd41p-44" value="" style="rhombus;whiteSpace=wrap;html=1;" vertex="1" parent="1">
          <mxGeometry x="350" y="-480" width="80" height="55" as="geometry" />
        </mxCell>
        <mxCell id="-b1DFWbRSprOOEIOd41p-42" value="" style="rhombus;whiteSpace=wrap;html=1;" vertex="1" parent="1">
          <mxGeometry x="130" y="-490" width="80" height="50" as="geometry" />
        </mxCell>
        <mxCell id="-b1DFWbRSprOOEIOd41p-2" value="BEBEDERO" style="swimlane;fontStyle=0;childLayout=stackLayout;horizontal=1;startSize=30;horizontalStack=0;resizeParent=1;resizeParentMax=0;resizeLast=0;collapsible=1;marginBottom=0;whiteSpace=wrap;html=1;" vertex="1" parent="1">
          <mxGeometry x="220" y="-490" width="120" height="120" as="geometry" />
        </mxCell>
        <mxCell id="-b1DFWbRSprOOEIOd41p-3" value="&lt;b&gt;ID_BEBEDERO (PK)&lt;/b&gt;" style="text;strokeColor=none;fillColor=none;align=left;verticalAlign=middle;spacingLeft=4;spacingRight=4;overflow=hidden;points=[[0,0.5],[1,0.5]];portConstraint=eastwest;rotatable=0;whiteSpace=wrap;html=1;" vertex="1" parent="-b1DFWbRSprOOEIOd41p-2">
          <mxGeometry y="30" width="120" height="30" as="geometry" />
        </mxCell>
        <mxCell id="-b1DFWbRSprOOEIOd41p-4" value="Tipo" style="text;strokeColor=none;fillColor=none;align=left;verticalAlign=middle;spacingLeft=4;spacingRight=4;overflow=hidden;points=[[0,0.5],[1,0.5]];portConstraint=eastwest;rotatable=0;whiteSpace=wrap;html=1;" vertex="1" parent="-b1DFWbRSprOOEIOd41p-2">
          <mxGeometry y="60" width="120" height="30" as="geometry" />
        </mxCell>
        <mxCell id="-b1DFWbRSprOOEIOd41p-5" value="Estado" style="text;strokeColor=none;fillColor=none;align=left;verticalAlign=middle;spacingLeft=4;spacingRight=4;overflow=hidden;points=[[0,0.5],[1,0.5]];portConstraint=eastwest;rotatable=0;whiteSpace=wrap;html=1;" vertex="1" parent="-b1DFWbRSprOOEIOd41p-2">
          <mxGeometry y="90" width="120" height="30" as="geometry" />
        </mxCell>
        <mxCell id="-b1DFWbRSprOOEIOd41p-12" style="edgeStyle=orthogonalEdgeStyle;rounded=0;orthogonalLoop=1;jettySize=auto;html=1;exitX=1;exitY=0;exitDx=0;exitDy=0;entryX=0;entryY=0.5;entryDx=0;entryDy=0;" edge="1" parent="1" source="-b1DFWbRSprOOEIOd41p-6" target="-b1DFWbRSprOOEIOd41p-4">
          <mxGeometry relative="1" as="geometry">
            <Array as="points">
              <mxPoint x="110" y="-450" />
              <mxPoint x="210" y="-450" />
              <mxPoint x="210" y="-415" />
            </Array>
          </mxGeometry>
        </mxCell>
        <mxCell id="-b1DFWbRSprOOEIOd41p-6" value="SUPERVISOR" style="swimlane;fontStyle=0;childLayout=stackLayout;horizontal=1;startSize=30;horizontalStack=0;resizeParent=1;resizeParentMax=0;resizeLast=0;collapsible=1;marginBottom=0;whiteSpace=wrap;html=1;" vertex="1" parent="1">
          <mxGeometry x="20" y="-510" width="90" height="120" as="geometry" />
        </mxCell>
        <mxCell id="-b1DFWbRSprOOEIOd41p-7" value="&lt;b&gt;ID_SUPERVISOR&lt;/b&gt;&lt;div&gt;&lt;b&gt;(PK)&lt;/b&gt;&lt;/div&gt;" style="text;strokeColor=none;fillColor=none;align=left;verticalAlign=middle;spacingLeft=4;spacingRight=4;overflow=hidden;points=[[0,0.5],[1,0.5]];portConstraint=eastwest;rotatable=0;whiteSpace=wrap;html=1;" vertex="1" parent="-b1DFWbRSprOOEIOd41p-6">
          <mxGeometry y="30" width="90" height="30" as="geometry" />
        </mxCell>
        <mxCell id="-b1DFWbRSprOOEIOd41p-8" value="Nombre" style="text;strokeColor=none;fillColor=none;align=left;verticalAlign=middle;spacingLeft=4;spacingRight=4;overflow=hidden;points=[[0,0.5],[1,0.5]];portConstraint=eastwest;rotatable=0;whiteSpace=wrap;html=1;" vertex="1" parent="-b1DFWbRSprOOEIOd41p-6">
          <mxGeometry y="60" width="90" height="30" as="geometry" />
        </mxCell>
        <mxCell id="-b1DFWbRSprOOEIOd41p-9" value="Cargo" style="text;strokeColor=none;fillColor=none;align=left;verticalAlign=middle;spacingLeft=4;spacingRight=4;overflow=hidden;points=[[0,0.5],[1,0.5]];portConstraint=eastwest;rotatable=0;whiteSpace=wrap;html=1;" vertex="1" parent="-b1DFWbRSprOOEIOd41p-6">
          <mxGeometry y="90" width="90" height="30" as="geometry" />
        </mxCell>
        <mxCell id="-b1DFWbRSprOOEIOd41p-13" value="Instala" style="text;html=1;align=center;verticalAlign=middle;resizable=0;points=[];autosize=1;strokeColor=none;fillColor=none;" vertex="1" parent="1">
          <mxGeometry x="140" y="-477" width="60" height="30" as="geometry" />
        </mxCell>
        <mxCell id="-b1DFWbRSprOOEIOd41p-14" value="UBICACION" style="swimlane;fontStyle=0;childLayout=stackLayout;horizontal=1;startSize=30;horizontalStack=0;resizeParent=1;resizeParentMax=0;resizeLast=0;collapsible=1;marginBottom=0;whiteSpace=wrap;html=1;" vertex="1" parent="1">
          <mxGeometry x="420" y="-620" width="140" height="120" as="geometry" />
        </mxCell>
        <mxCell id="-b1DFWbRSprOOEIOd41p-15" value="&lt;b&gt;ID_UBICACION (PK)&lt;/b&gt;" style="text;strokeColor=none;fillColor=none;align=left;verticalAlign=middle;spacingLeft=4;spacingRight=4;overflow=hidden;points=[[0,0.5],[1,0.5]];portConstraint=eastwest;rotatable=0;whiteSpace=wrap;html=1;" vertex="1" parent="-b1DFWbRSprOOEIOd41p-14">
          <mxGeometry y="30" width="140" height="30" as="geometry" />
        </mxCell>
        <mxCell id="-b1DFWbRSprOOEIOd41p-16" value="Nombre del lugar" style="text;strokeColor=none;fillColor=none;align=left;verticalAlign=middle;spacingLeft=4;spacingRight=4;overflow=hidden;points=[[0,0.5],[1,0.5]];portConstraint=eastwest;rotatable=0;whiteSpace=wrap;html=1;" vertex="1" parent="-b1DFWbRSprOOEIOd41p-14">
          <mxGeometry y="60" width="140" height="30" as="geometry" />
        </mxCell>
        <mxCell id="-b1DFWbRSprOOEIOd41p-17" value="TipoZona" style="text;strokeColor=none;fillColor=none;align=left;verticalAlign=middle;spacingLeft=4;spacingRight=4;overflow=hidden;points=[[0,0.5],[1,0.5]];portConstraint=eastwest;rotatable=0;whiteSpace=wrap;html=1;" vertex="1" parent="-b1DFWbRSprOOEIOd41p-14">
          <mxGeometry y="90" width="140" height="30" as="geometry" />
        </mxCell>
        <mxCell id="-b1DFWbRSprOOEIOd41p-18" value="AGUA" style="swimlane;fontStyle=0;childLayout=stackLayout;horizontal=1;startSize=30;horizontalStack=0;resizeParent=1;resizeParentMax=0;resizeLast=0;collapsible=1;marginBottom=0;whiteSpace=wrap;html=1;" vertex="1" parent="1">
          <mxGeometry x="420" y="-400" width="140" height="110" as="geometry" />
        </mxCell>
        <mxCell id="-b1DFWbRSprOOEIOd41p-19" value="&lt;b&gt;ID_AGUA (PK)&lt;/b&gt;" style="text;strokeColor=none;fillColor=none;align=left;verticalAlign=middle;spacingLeft=4;spacingRight=4;overflow=hidden;points=[[0,0.5],[1,0.5]];portConstraint=eastwest;rotatable=0;whiteSpace=wrap;html=1;" vertex="1" parent="-b1DFWbRSprOOEIOd41p-18">
          <mxGeometry y="30" width="140" height="30" as="geometry" />
        </mxCell>
        <mxCell id="-b1DFWbRSprOOEIOd41p-21" value="&lt;div&gt;&lt;span style=&quot;background-color: initial;&quot;&gt;Calidad&lt;/span&gt;&lt;/div&gt;&lt;div&gt;&lt;span style=&quot;background-color: initial;&quot;&gt;&lt;br&gt;&lt;/span&gt;&lt;/div&gt;&lt;div&gt;&lt;span style=&quot;background-color: initial;&quot;&gt;Fuente&lt;/span&gt;&lt;/div&gt;" style="text;strokeColor=none;fillColor=none;align=left;verticalAlign=middle;spacingLeft=4;spacingRight=4;overflow=hidden;points=[[0,0.5],[1,0.5]];portConstraint=eastwest;rotatable=0;whiteSpace=wrap;html=1;" vertex="1" parent="-b1DFWbRSprOOEIOd41p-18">
          <mxGeometry y="60" width="140" height="50" as="geometry" />
        </mxCell>
        <mxCell id="-b1DFWbRSprOOEIOd41p-22" value="USUARIO" style="swimlane;fontStyle=0;childLayout=stackLayout;horizontal=1;startSize=30;horizontalStack=0;resizeParent=1;resizeParentMax=0;resizeLast=0;collapsible=1;marginBottom=0;whiteSpace=wrap;html=1;" vertex="1" parent="1">
          <mxGeometry x="200" y="-670" width="140" height="120" as="geometry" />
        </mxCell>
        <mxCell id="-b1DFWbRSprOOEIOd41p-23" value="&lt;b&gt;ID_USUARIO (PK)&lt;/b&gt;" style="text;strokeColor=none;fillColor=none;align=left;verticalAlign=middle;spacingLeft=4;spacingRight=4;overflow=hidden;points=[[0,0.5],[1,0.5]];portConstraint=eastwest;rotatable=0;whiteSpace=wrap;html=1;" vertex="1" parent="-b1DFWbRSprOOEIOd41p-22">
          <mxGeometry y="30" width="140" height="30" as="geometry" />
        </mxCell>
        <mxCell id="-b1DFWbRSprOOEIOd41p-24" value="Nombre" style="text;strokeColor=none;fillColor=none;align=left;verticalAlign=middle;spacingLeft=4;spacingRight=4;overflow=hidden;points=[[0,0.5],[1,0.5]];portConstraint=eastwest;rotatable=0;whiteSpace=wrap;html=1;" vertex="1" parent="-b1DFWbRSprOOEIOd41p-22">
          <mxGeometry y="60" width="140" height="30" as="geometry" />
        </mxCell>
        <mxCell id="-b1DFWbRSprOOEIOd41p-25" value="TipoUsuario" style="text;strokeColor=none;fillColor=none;align=left;verticalAlign=middle;spacingLeft=4;spacingRight=4;overflow=hidden;points=[[0,0.5],[1,0.5]];portConstraint=eastwest;rotatable=0;whiteSpace=wrap;html=1;" vertex="1" parent="-b1DFWbRSprOOEIOd41p-22">
          <mxGeometry y="90" width="140" height="30" as="geometry" />
        </mxCell>
        <mxCell id="-b1DFWbRSprOOEIOd41p-28" value="" style="endArrow=none;html=1;rounded=0;exitX=1.012;exitY=0.162;exitDx=0;exitDy=0;exitPerimeter=0;" edge="1" parent="1" source="-b1DFWbRSprOOEIOd41p-4">
          <mxGeometry width="50" height="50" relative="1" as="geometry">
            <mxPoint x="340" y="-445" as="sourcePoint" />
            <mxPoint x="440" y="-430" as="targetPoint" />
            <Array as="points" />
          </mxGeometry>
        </mxCell>
        <mxCell id="-b1DFWbRSprOOEIOd41p-40" value="(1)&lt;div&gt;&lt;br&gt;&lt;/div&gt;" style="edgeLabel;html=1;align=center;verticalAlign=middle;resizable=0;points=[];" vertex="1" connectable="0" parent="-b1DFWbRSprOOEIOd41p-28">
          <mxGeometry x="-0.6589" y="-7" relative="1" as="geometry">
            <mxPoint x="-9" y="12" as="offset" />
          </mxGeometry>
        </mxCell>
        <mxCell id="-b1DFWbRSprOOEIOd41p-29" value="" style="endArrow=classic;html=1;rounded=0;entryX=0.122;entryY=0.971;entryDx=0;entryDy=0;entryPerimeter=0;" edge="1" parent="1" target="-b1DFWbRSprOOEIOd41p-17">
          <mxGeometry width="50" height="50" relative="1" as="geometry">
            <mxPoint x="440" y="-430" as="sourcePoint" />
            <mxPoint x="420" y="-495" as="targetPoint" />
          </mxGeometry>
        </mxCell>
        <mxCell id="-b1DFWbRSprOOEIOd41p-30" value="" style="endArrow=none;html=1;rounded=0;" edge="1" parent="1">
          <mxGeometry width="50" height="50" relative="1" as="geometry">
            <mxPoint x="310" y="-300" as="sourcePoint" />
            <mxPoint x="310" y="-370" as="targetPoint" />
          </mxGeometry>
        </mxCell>
        <mxCell id="-b1DFWbRSprOOEIOd41p-31" value="" style="endArrow=classic;html=1;rounded=0;entryX=0.041;entryY=0.84;entryDx=0;entryDy=0;entryPerimeter=0;" edge="1" parent="1" target="-b1DFWbRSprOOEIOd41p-21">
          <mxGeometry width="50" height="50" relative="1" as="geometry">
            <mxPoint x="300" y="-300" as="sourcePoint" />
            <mxPoint x="350" y="-350" as="targetPoint" />
          </mxGeometry>
        </mxCell>
        <mxCell id="-b1DFWbRSprOOEIOd41p-32" value="Distribuye" style="text;html=1;align=center;verticalAlign=middle;resizable=0;points=[];autosize=1;strokeColor=none;fillColor=none;" vertex="1" parent="1">
          <mxGeometry x="230" y="-342" width="80" height="30" as="geometry" />
        </mxCell>
        <mxCell id="-b1DFWbRSprOOEIOd41p-33" value="Ubicado en" style="text;html=1;align=center;verticalAlign=middle;resizable=0;points=[];autosize=1;strokeColor=none;fillColor=none;" vertex="1" parent="1">
          <mxGeometry x="350" y="-472" width="80" height="30" as="geometry" />
        </mxCell>
        <mxCell id="-b1DFWbRSprOOEIOd41p-34" value="" style="endArrow=classic;html=1;rounded=0;entryX=0.393;entryY=-0.007;entryDx=0;entryDy=0;entryPerimeter=0;" edge="1" parent="1" source="-b1DFWbRSprOOEIOd41p-25" target="-b1DFWbRSprOOEIOd41p-2">
          <mxGeometry width="50" height="50" relative="1" as="geometry">
            <mxPoint x="267" y="-520" as="sourcePoint" />
            <mxPoint x="310" y="-560" as="targetPoint" />
          </mxGeometry>
        </mxCell>
        <mxCell id="-b1DFWbRSprOOEIOd41p-35" value="Utiliza" style="text;html=1;align=center;verticalAlign=middle;resizable=0;points=[];autosize=1;strokeColor=none;fillColor=none;" vertex="1" parent="1">
          <mxGeometry x="200" y="-532.5" width="60" height="30" as="geometry" />
        </mxCell>
        <mxCell id="-b1DFWbRSprOOEIOd41p-36" value="(N)" style="text;html=1;align=center;verticalAlign=middle;resizable=0;points=[];autosize=1;strokeColor=none;fillColor=none;" vertex="1" parent="1">
          <mxGeometry x="260" y="-560" width="40" height="30" as="geometry" />
        </mxCell>
        <mxCell id="-b1DFWbRSprOOEIOd41p-37" value="(N)" style="text;html=1;align=center;verticalAlign=middle;resizable=0;points=[];autosize=1;strokeColor=none;fillColor=none;" vertex="1" parent="1">
          <mxGeometry x="280" y="-515" width="40" height="30" as="geometry" />
        </mxCell>
        <mxCell id="-b1DFWbRSprOOEIOd41p-38" value="(1)&lt;div&gt;&lt;br&gt;&lt;/div&gt;" style="text;html=1;align=center;verticalAlign=middle;resizable=0;points=[];autosize=1;strokeColor=none;fillColor=none;" vertex="1" parent="1">
          <mxGeometry x="100" y="-447" width="40" height="40" as="geometry" />
        </mxCell>
        <mxCell id="-b1DFWbRSprOOEIOd41p-39" value="(N)" style="text;html=1;align=center;verticalAlign=middle;resizable=0;points=[];autosize=1;strokeColor=none;fillColor=none;" vertex="1" parent="1">
          <mxGeometry x="190" y="-407" width="40" height="30" as="geometry" />
        </mxCell>
        <mxCell id="-b1DFWbRSprOOEIOd41p-41" value="(1)" style="text;html=1;align=center;verticalAlign=middle;resizable=0;points=[];autosize=1;strokeColor=none;fillColor=none;" vertex="1" parent="1">
          <mxGeometry x="440" y="-502" width="40" height="30" as="geometry" />
        </mxCell>
      </root>
    </mxGraphModel>
  </diagram>
</mxfile>
